<?xml version="1.0" encoding="utf-8"?>
<!-- Generator: Adobe Illustrator 19.0.0, SVG Export Plug-In . SVG Version: 6.00 Build 0)  -->
<svg version="1.1" id="Layer_1" xmlns="http://www.w3.org/2000/svg" xmlns:xlink="http://www.w3.org/1999/xlink" x="0px" y="0px"
	 viewBox="0 0 588.5 560" style="enable-background:new 0 0 588.5 560;" xml:space="preserve">
<style type="text/css">
	.st0{font-family:'Cabin-Bold';}
	.st1{font-size:201.8684px;}
	.st2{letter-spacing:20;}
	.st3{fill:#EFEFEF;}
	.st4{fill:none;}
	.st5{fill-rule:evenodd;clip-rule:evenodd;}
	.st6{fill-rule:evenodd;clip-rule:evenodd;fill:#A2CCA2;}
</style>
<text id="XMLID_9_" transform="matrix(1 0 0 1 126.5514 260.1287)" class="st0 st1 st2">N</text>
<text id="XMLID_8_" transform="matrix(1 0 0 1 345.2639 260.1287)" class="st0 st1 st2">Z</text>
<text id="XMLID_7_" transform="matrix(1 0 0 1 368.2248 486.1873)" class="st0 st1 st2">I</text>
<rect id="XMLID_6_" x="10.7" y="295.1" class="st3" width="564.1" height="5.4"/>
<rect id="XMLID_5_" x="295.6" y="11.2" class="st3" width="5.9" height="537"/>
<rect id="XMLID_4_" x="10.7" y="11.2" class="st4" width="564.1" height="537"/>
<g>
	<g id="XMLID_40_">
		<path id="XMLID_43_" class="st5" d="M202.9,344.7c-0.1,0-0.3,0-0.4-0.1C202.6,344.6,202.8,344.7,202.9,344.7z"/>
		<path id="XMLID_42_" class="st6" d="M182.5,372.5c15.4-1,32.3,7.7,27.4,25c-2.8,9.7-12.9,6.6-17,16.3
			c-6.1,14.3,17.1,26.2,33.8,13.2c31.5-24.5,15.6-75.1-19.4-81c-1.9-0.3-6-1-7.9-1c-38.4,0-68.1,31.1-68.1,69.5
			c0,27.4,14.6,50.2,37.6,61.5C131.4,451.1,129.8,375.8,182.5,372.5z"/>
		<path id="XMLID_41_" class="st5" d="M222.3,345.8c16.5,7.6,29,25.5,28.6,49.8c-0.7,41.8-51.9,58.3-64.4,28.5
			c-3.6-8.4,0.8-17,11.4-21.8c8.6-3.9,8.6-14.8,3-19.2c-9.4-7.2-23.2-6-34.2,0.4c-17,10-18.9,32.6-16.4,49.3
			c4.2,27.9,28.7,45.4,53.2,48.3c36.8,4.4,66.6-29.2,66.6-66.6C270.1,384,249.8,355.1,222.3,345.8z"/>
	</g>
</g>
</svg>
